<?xml version="1.0" encoding="iso-8859-1"?>
<!-- Generator: Adobe Illustrator 19.0.0, SVG Export Plug-In . SVG Version: 6.00 Build 0)  -->
<svg version="1.1" id="Layer_1" xmlns="http://www.w3.org/2000/svg" xmlns:xlink="http://www.w3.org/1999/xlink" x="0px" y="0px"
	 viewBox="0 0 480.001 480.001" style="enable-background:new 0 0 480.001 480.001;" xml:space="preserve">
<g>
	<g>
		<path  style="fill:#007bff;" d="M473.679,138.257L238.348,45.145c-2.35-0.93-4.966-0.936-7.32-0.015L6.359,132.968c-3.848,1.504-6.374,5.221-6.359,9.352
			c0.016,4.132,2.571,7.828,6.431,9.303l69.068,26.39v122.285c0,4.062,2.457,7.721,6.217,9.257l150.878,61.651
			c0.317,0.129,0.638,0.24,0.963,0.335c0.045,0.014,0.092,0.021,0.138,0.034c0.36,0.1,0.724,0.177,1.089,0.235
			c0.119,0.02,0.236,0.037,0.355,0.052c0.384,0.048,0.769,0.079,1.154,0.083c0.03,0,0.06,0.006,0.09,0.006
			c0.441,0,0.885-0.041,1.328-0.101c0.098-0.013,0.195-0.03,0.292-0.046c0.365-0.061,0.728-0.142,1.089-0.244
			c0.083-0.023,0.167-0.041,0.249-0.067c0.385-0.12,0.769-0.258,1.146-0.429l79.955-36.053c0.045,0.973,0.23,1.908,0.536,2.791
			c-0.014,0.056-0.036,0.107-0.049,0.163l-18.718,85.453c-0.77,3.515,0.408,7.172,3.084,9.577c1.863,1.675,4.254,2.563,6.686,2.563
			c1.061,0,2.129-0.168,3.165-0.515l63.205-21.099c2.984-0.996,5.325-3.338,6.32-6.322c0.995-2.984,0.528-6.263-1.261-8.85
			l-43.163-62.439c0.091-0.502,0.156-1.013,0.17-1.539c0.038-1.481,0.103-4.564,0.134-8.851l58.06-26.181
			c3.585-1.617,5.89-5.184,5.89-9.116v-108.98l68.875-24.699c3.917-1.405,6.556-5.089,6.623-9.251
			C480.066,143.557,477.549,139.789,473.679,138.257z M226.377,347.061L95.499,293.582V185.655l130.878,50.007V347.061z
			 M246.375,346.469V238.371l62.242-22.32c8.727,23.894,11.397,67.355,11.859,97.005L246.375,346.469z M359.386,399.191
			l-33.87,11.306l10.03-45.792L359.386,399.191z M340.34,304.099c-0.721-28.083-3.51-68.578-12.971-94.772l57.132-20.488v95.347h0
			L340.34,304.099z M317.991,191.443c-24.541-32.27-87.574-55.77-90.332-56.786c-5.18-1.911-10.931,0.744-12.84,5.926
			c-1.909,5.182,0.744,10.931,5.926,12.84c15.917,5.864,57.441,24.334,77.149,45.226l-57.957,20.783l-202.2-77.258l196.91-76.985
			l207.01,81.906L317.991,191.443z"/>
	</g>
</g>
<g>
</g>
<g>
</g>
<g>
</g>
<g>
</g>
<g>
</g>
<g>
</g>
<g>
</g>
<g>
</g>
<g>
</g>
<g>
</g>
<g>
</g>
<g>
</g>
<g>
</g>
<g>
</g>
<g>
</g>
</svg>
